PathFileType	4	(X/Y/Z)	./resultDataOpenSim/trcMotMarkerGrf/sub10/qtm-05-04.trc
DataRate	CameraRate	NumFrames	NumMarkers	Units	OrigDataRate	OrigDataStartFrame	OrigNumFrames
250.000000	250.000000	10	24	m	250.000000	194	516
Frame#	Time	L.Toe.Tip			R.Toe.Tip			L.Ankle.Lat			R.Ankle.Lat			L.Ankle.Med			R.Ankle.Med			L.Heel			R.Heel			L.Knee.Lat			R.Knee.Lat			L.Knee.Med			R.Knee.Med			L.Thigh.Upper			R.Thigh.Upper			L.ASIS			R.ASIS			V.Sacral			L.Acromium			R.Acromium			C7			L.Elbow			R.Elbow			L.Wrist.Lat			R.Wrist.Lat
		X1	Y1	Z1	X2	Y2	Z2	X3	Y3	Z3	X4	Y4	Z4	X5	Y5	Z5	X6	Y6	Z6	X7	Y7	Z7	X8	Y8	Z8	X9	Y9	Z9	X10	Y10	Z10	X11	Y11	Z11	X12	Y12	Z12	X13	Y13	Z13	X14	Y14	Z14	X15	Y15	Z15	X16	Y16	Z16	X17	Y17	Z17	X18	Y18	Z18	X19	Y19	Z19	X20	Y20	Z20	X21	Y21	Z21	X22	Y22	Z22	X23	Y23	Z23	X24	Y24	Z24

194	0.772	0.017034602	-0.057203303	-0.11368239	-0.7126549	0.037346448	0.031565841	-0.11551893	-0.025931006	-0.16587064	-0.7768738	0.16262944	0.052358839	-0.12200834	-0.0058907402	-0.083209568	-0.72995268	0.1480354	-0.020225257	-0.18368965	-0.052760488	-0.13194866	-0.81536079	0.17873676	-0.0069238805	-0.087139923	0.36177737	-0.17321838	-0.44465345	0.36766231	0.099513483	-0.090784759	0.33579056	-0.053364551	-0.39514949	0.34062041	-0.016073866	-0.17401694	0.74434458	-0.22070777	-0.34083089	0.74688145	0.13633374	-0.15172982	0.84696237	-0.13309377	-0.23256786	0.83222406	0.095705508	-0.38774999	0.85146732	-0.085467675	-0.28423893	1.3087202	-0.21060968	-0.31215473	1.3117119	0.11039531	-0.38024906	1.3300824	-0.064352298	-0.48157926	1.0457327	-0.29711935	-0.31042572	0.95091329	0.17904741	-0.45024863	0.8213875	-0.39432316	-0.065148077	0.89058848	0.17212909
195	0.776	0.016970744	-0.057271774	-0.1135755	-0.71067995	0.037481999	0.031308794	-0.11539312	-0.027034168	-0.16598207	-0.76774725	0.16693567	0.052249511	-0.12227092	-0.0066393049	-0.083189979	-0.72024983	0.15004771	-0.019323784	-0.18380999	-0.053595812	-0.13220644	-0.80483592	0.18508688	-0.0069017772	-0.081925183	0.36054024	-0.17312302	-0.43316268	0.36589591	0.10081154	-0.087642104	0.33452488	-0.053416344	-0.38221049	0.33659079	-0.014514535	-0.16728199	0.74408821	-0.22165807	-0.33232804	0.74443217	0.13626162	-0.14533164	0.84622196	-0.13432455	-0.22484257	0.83059962	0.094127295	-0.37957421	0.84953179	-0.086530698	-0.27753026	1.3075784	-0.21160977	-0.30524702	1.310718	0.10948201	-0.37346779	1.3290731	-0.065285003	-0.47321906	1.0435193	-0.29785635	-0.30545066	0.94981114	0.17717511	-0.4425306	0.81931767	-0.39552476	-0.060968882	0.88743669	0.17305576
196	0.78	0.016940311	-0.057338885	-0.11346435	-0.7079831	0.038101541	0.030887352	-0.11529971	-0.028066746	-0.16595081	-0.75830336	0.17109263	0.052236938	-0.12239201	-0.0072941614	-0.08304739	-0.71031678	0.15222054	-0.018501174	-0.18391273	-0.0542553	-0.13222819	-0.79413073	0.19140505	-0.0066304951	-0.076991967	0.35935587	-0.17309617	-0.42162525	0.36409677	0.10209355	-0.084566712	0.33337098	-0.053550178	-0.3687245	0.33244633	-0.012801043	-0.16066722	0.74393211	-0.2225553	-0.32398231	0.7420043	0.13616297	-0.13905805	0.84553793	-0.1354735	-0.21743646	0.82908482	0.092661244	-0.37151355	0.84746935	-0.088044369	-0.27080631	1.3064959	-0.21257687	-0.29832071	1.3097747	0.10858566	-0.36669844	1.3281489	-0.066182968	-0.46475496	1.0412899	-0.298522	-0.30058451	0.94877349	0.17558364	-0.43465477	0.81726353	-0.39665436	-0.056905937	0.88422442	0.17398012
197	0.784	0.01693543	-0.057405482	-0.11334764	-0.70452561	0.039363735	0.030342076	-0.11517022	-0.028923502	-0.16573293	-0.74855588	0.17525154	0.052286736	-0.12241797	-0.0078806015	-0.082761025	-0.70023214	0.15473521	-0.017808351	-0.18401373	-0.054799347	-0.13205419	-0.78322525	0.19772255	-0.0062013781	-0.072359056	0.35822456	-0.17312113	-0.41005995	0.36227354	0.10334292	-0.081510025	0.33230408	-0.053738607	-0.35477696	0.3282441	-0.010897236	-0.15418308	0.74386612	-0.22341652	-0.31577838	0.73960802	0.13602419	-0.13290022	0.84489597	-0.13653854	-0.21035034	0.82768409	0.091315495	-0.36441859	0.84582414	-0.089008492	-0.26406201	1.305479	-0.21350012	-0.29135687	1.3088883	0.10773363	-0.35994609	1.3273068	-0.067046545	-0.45620534	1.0390695	-0.29915801	-0.29582663	0.94783691	0.17431443	-0.42661357	0.8152275	-0.39772446	-0.052953229	0.88095479	0.17487958
198	0.788	0.016945662	-0.057471165	-0.11322573	-0.70033008	0.04130318	0.029773992	-0.11497706	-0.029588297	-0.16536257	-0.73843231	0.17953324	0.052379828	-0.12238031	-0.0084204959	-0.082341047	-0.69008972	0.15762393	-0.017250241	-0.18411664	-0.055254633	-0.13172702	-0.77191275	0.20399127	-0.0057986833	-0.068041959	0.35714169	-0.17316881	-0.39850188	0.36044636	0.10457224	-0.078458019	0.33131989	-0.053949207	-0.3405818	0.32402871	-0.0089114819	-0.14785121	0.74387282	-0.22425788	-0.30771249	0.73726716	0.13583556	-0.12685451	0.84428542	-0.13752495	-0.2034732	0.82635593	0.090056758	-0.35888666	0.84494545	-0.088790497	-0.25729476	1.3045369	-0.21437536	-0.28437348	1.3080575	0.10693925	-0.35321074	1.3265482	-0.067874945	-0.44757329	1.0368694	-0.29976816	-0.29111685	0.94703228	0.1732542	-0.41840107	0.81321684	-0.39873919	-0.049114606	0.87761079	0.17575435
199	0.792	0.016961811	-0.057535515	-0.1130991	-0.69542236	0.04383327	0.029281281	-0.11473892	-0.030113798	-0.16491878	-0.72787622	0.18397576	0.052530709	-0.12231512	-0.0089217317	-0.081842914	-0.67990116	0.16079917	-0.016773085	-0.18421154	-0.055628281	-0.1313106	-0.75997915	0.21011042	-0.0056257036	-0.064068355	0.35609924	-0.17322642	-0.38700975	0.35863151	0.1057904	-0.075408486	0.33044969	-0.054155644	-0.32631894	0.31989363	-0.0069857143	-0.14170221	0.74392533	-0.22509584	-0.29979043	0.73502507	0.1355962	-0.12092188	0.84370217	-0.13844134	-0.19666121	0.82505184	0.088842097	-0.35464407	0.84470443	-0.087578191	-0.25050708	1.3036778	-0.21520864	-0.27741282	1.3072802	0.10619986	-0.3464983	1.3258785	-0.068665056	-0.43885695	1.0346949	-0.30033887	-0.28643879	0.94637471	0.17228175	-0.41000175	0.81124413	-0.39969597	-0.045401123	0.87417425	0.17662644
200	0.796	0.016973638	-0.057596221	-0.11297175	-0.68978607	0.046833759	0.02892588	-0.11448418	-0.030552435	-0.16446717	-0.71684592	0.18859083	0.052785216	-0.12225806	-0.0093772729	-0.081348191	-0.66954083	0.16415995	-0.016293188	-0.18428758	-0.05591956	-0.13089151	-0.74744859	0.21604358	-0.0057041805	-0.060454798	0.35509265	-0.17329641	-0.37564777	0.3568339	0.10699914	-0.072377087	0.32972776	-0.054349227	-0.31205247	0.3160021	-0.0052065092	-0.135773	0.74399006	-0.2259455	-0.29203014	0.73293928	0.13532676	-0.11510614	0.84315104	-0.13929569	-0.18987905	0.82378621	0.087674775	-0.35098372	0.84474246	-0.085940314	-0.24370563	1.3029076	-0.2160082	-0.27049365	1.3065674	0.10550212	-0.33982479	1.3253064	-0.069411984	-0.43006161	1.032553	-0.30085484	-0.28182168	0.94584662	0.17132414	-0.40139037	0.80932033	-0.40059457	-0.04181929	0.87065005	0.17751023
201	0.8	0.016971567	-0.057649517	-0.11285274	-0.68330884	0.050226284	0.028767654	-0.1142314	-0.0309214	-0.16404352	-0.7052708	0.1934147	0.053158155	-0.12221257	-0.0097709794	-0.080915119	-0.658852	0.16764754	-0.015782233	-0.18434652	-0.056125805	-0.13054308	-0.73453999	0.22184828	-0.0058750477	-0.057172313	0.35413154	-0.17337499	-0.36437556	0.35503073	0.10820924	-0.069375466	0.32915303	-0.054510779	-0.29779495	0.31254861	-0.0036099019	-0.13010222	0.74403832	-0.22681558	-0.28448007	0.73107055	0.13508988	-0.10941397	0.84264316	-0.14009497	-0.18319265	0.82263181	0.086597985	-0.34742617	0.84481029	-0.084267386	-0.23689663	1.3022299	-0.21677438	-0.26360617	1.3059382	0.10483187	-0.33320021	1.3248446	-0.07011541	-0.42120301	1.0304536	-0.30129639	-0.27729123	0.94541731	0.17035398	-0.39255078	0.8074473	-0.40143667	-0.038371236	0.86706059	0.17840119
202	0.804	0.016953331	-0.05769377	-0.11275343	-0.67580033	0.053959484	0.028900026	-0.11398578	-0.031209469	-0.16366868	-0.69316878	0.19845924	0.053557469	-0.12214634	-0.010083326	-0.080557134	-0.64772507	0.17125439	-0.015335972	-0.18440043	-0.056247814	-0.13029257	-0.72147843	0.22756655	-0.0060196366	-0.054141832	0.35324076	-0.17345088	-0.35283368	0.35315051	0.1094633	-0.066413406	0.328696	-0.054613498	-0.28357693	0.30971069	-0.0022047773	-0.12472227	0.74405368	-0.22770774	-0.27722327	0.72947625	0.13498234	-0.10385354	0.84219404	-0.14084927	-0.17666949	0.82166855	0.085647478	-0.3438319	0.84484025	-0.082640538	-0.23008367	1.3016505	-0.2175004	-0.25674858	1.3054069	0.10418594	-0.32661864	1.3245061	-0.070794667	-0.41230524	1.0284078	-0.30164195	-0.27284515	0.94507823	0.16937342	-0.38347669	0.8056276	-0.40222445	-0.035065681	0.86342271	0.17928904
203	0.808	0.016925249	-0.05773033	-0.11268073	-0.66712394	0.057950338	0.029413441	-0.11374731	-0.031405099	-0.16336181	-0.68071178	0.20366292	0.053818569	-0.12202903	-0.010294718	-0.080266362	-0.63610624	0.17502144	-0.015114457	-0.18445744	-0.056292501	-0.13012983	-0.70842704	0.23314872	-0.0061683065	-0.051265095	0.35244643	-0.17352605	-0.34022276	0.35109222	0.11083543	-0.063570928	0.32832403	-0.054687932	-0.26945146	0.30760211	-0.00098262201	-0.11965372	0.74402958	-0.2286169	-0.27032419	0.72819534	0.13506451	-0.098429132	0.84182173	-0.14157121	-0.17035176	0.82096083	0.084840418	-0.34014834	0.84485703	-0.080954452	-0.22327081	1.3011773	-0.21818157	-0.24994114	1.3049815	0.10356865	-0.32006777	1.3243	-0.071499276	-0.40338745	1.0264263	-0.30189226	-0.26845363	0.94484109	0.16838911	-0.37416924	0.80387426	-0.40295549	-0.031922834	0.8597423	0.18017079
